# xmcd
#
# Track frame offsets: 
#        150
#        15597
#        36295
#        47145
#        56554
#        69592
#        82327
#        99535
#        114637
#        126632
#        146686
#        164207
#        176784
#        191330
#        209748
#        225770
#        244962
#        255045
#        267904
#        284126
#
# Disc length: 4005 seconds
#
# Revision: 0
# Processed by: cddbd v1.5.2PL0 Copyright (c) Steve Scherf et al.
# Submitted via: ExactAudioCopy v0.99pb4
#
DISCID=370fa314
DTITLE=Various Artist - De Beste Soul
DYEAR=2005
DGENRE=soul
TTITLE0=01.Barry White - you're the first,the last,my everything
TTITLE1=02.Billy Paul - Me and Mrs Jones
TTITLE2=03.Aretha Franklin - Respect
TTITLE3=04.Bill Withers - Ain't no sunshine
TTITLE4=05.Ben E.King - Stand by me
TTITLE5=06.The Temptations - My Girl
TTITLE6=07.Marvin Gaye - what's going on
TTITLE7=08.Stevie Wonder - Isn't she lovely
TTITLE8=09.Otis Redding - The dock of the bay
TTITLE9=10.Lional Richie and Diana Ross - Endless love
TTITLE10=11.Jackson's - i'll be there
TTITLE11=12.James Brown - I feel Good 
TTITLE12=13.The stylistics - Can't give you anything
TTITLE13=14.Chaka Kran - I'm every woman
TTITLE14=15.Thelma Houston - Don't leave me this way
TTITLE15=16.Commodores - Easy
TTITLE16=17.Nina Simone - Ain't got no
TTITLE17=18.Mary Wels - My guy 
TTITLE18=19.Billy Preston and Syreeta - With you i'm born again
TTITLE19=20.Ike and Tina Turner - River deep mountain high
EXTD=
EXTT0=Barry White - You're the first, the last, my everything
EXTT1=Billy Paul - Me and mrs Jones
EXTT2=
EXTT3=
EXTT4=
EXTT5=
EXTT6=
EXTT7=
EXTT8=
EXTT9=
EXTT10=
EXTT11=
EXTT12=
EXTT13=
EXTT14=
EXTT15=
EXTT16=
EXTT17=
EXTT18=
EXTT19=
PLAYORDER=
